# xmcd CD database file
#
# Track frame offsets:
#	150
#	16725
#	37457
#	58504
#	76156
#	95850
#	113462
#	131102
#	147863
#	166459
#	184284
#	201089
#	221444
#	241134
#	260673
#	280522
#	297124
#	313887
#
# Disc length: 4435 seconds
#
# Revision: 1
# Processed by: cddbd v1.5.2PL0 Copyright (c) Steve Scherf et al.
# Submitted via: CDex 1.51
#
DISCID=0b115112
DTITLE=Various Artist - EZH-90
DYEAR=2011
DGENRE=Jazz
TTITLE0=Wanted The - Glad You Came
TTITLE1=Beyonce - Best Thing I Never Had
TTITLE2=Ed Sheeran - The A Team
TTITLE3=Jason Derulo - Don't Wanna Go Home
TTITLE4=Adele - Set Fire To The Rain
TTITLE5=Calvin Harris Ft Kelis - Bounce
TTITLE6=JLS Ft Dev - She Makes Me Wanna
TTITLE7=Snoop Dogg Vs David Guetta - Sweat
TTITLE8=Tinchy Stryder and Dappy - Spaceship
TTITLE9=Olly Murs Ft Rizzle Kicks - Heart Skips A Beat
TTITLE10=One Direction - What Make You Beautiful
TTITLE11=Christina Perri - Jar Of hearts
TTITLE12=Wretch32 Ft Josh Kurma - Don't Go
TTITLE13=Emeli Sande - Heaven
TTITLE14=Nero - Promises
TTITLE15=David Guetta Ft Taio Cruz and Ludacis - Little Bad Girl
TTITLE16=Cher Lloyd - Swagger Jagger
TTITLE17=Katy Perry - Last Friday Night
EXTD=YEAR: 2011
EXTT0=
EXTT1=
EXTT2=
EXTT3=
EXTT4=
EXTT5=
EXTT6=
EXTT7=
EXTT8=
EXTT9=
EXTT10=
EXTT11=
EXTT12=
EXTT13=
EXTT14=
EXTT15=
EXTT16=
EXTT17=
PLAYORDER=
